<?xml version="1.0" encoding="UTF-8" standalone="no"?>
<!-- Generator: Adobe Illustrator 25.2.1, SVG Export Plug-In . SVG Version: 6.00 Build 0)  -->

<svg
   version="1.1"
   id="Layer_1"
   x="0px"
   y="0px"
   viewBox="0 0 461.35669 698.91821"
   xml:space="preserve"
   sodipodi:docname="984e8c1055826bfb93625b1e1a1f1872.svg"
   width="461.35669"
   height="698.91821"
   xmlns:inkscape="http://www.inkscape.org/namespaces/inkscape"
   xmlns:sodipodi="http://sodipodi.sourceforge.net/DTD/sodipodi-0.dtd"
   xmlns="http://www.w3.org/2000/svg"
   xmlns:svg="http://www.w3.org/2000/svg"><defs
   id="defs39" /><sodipodi:namedview
   id="namedview37"
   pagecolor="#ffffff"
   bordercolor="#666666"
   borderopacity="1.0"
   inkscape:pageshadow="2"
   inkscape:pageopacity="0.0"
   inkscape:pagecheckerboard="0" />
<style
   type="text/css"
   id="style2">
	.st0{fill:url(#SVGID_1_);}
	.st1{fill:url(#SVGID_2_);}
	.st2{fill:url(#SVGID_3_);}
	.st3{fill:url(#SVGID_4_);}
</style>
<g
   id="g34"
   transform="translate(-93.798101,-29.003605)">
	<g
   id="g32">
		<linearGradient
   id="SVGID_1_"
   gradientUnits="userSpaceOnUse"
   x1="129.5058"
   y1="695.75372"
   x2="398.83051"
   y2="414.5578">
			<stop
   offset="1.331947e-07"
   style="stop-color:#E15C47"
   id="stop4" />
			<stop
   offset="1"
   style="stop-color:#E9BB4D"
   id="stop6" />
		</linearGradient>
		<path
   class="st0"
   d="m 227.6,549.85 c 77.52,-9.97 150.35,-53.49 194.96,-117.67 14.93,-21.48 26.73,-45.01 36.05,-69.43 9.39,-24.62 16.31,-50.13 21.84,-75.88 5.58,-25.98 9.76,-52.24 13.59,-78.53 0.42,-2.87 0.61,-5.91 1.32,-8.7 -0.75,1.99 -1.24,4.78 -2.1,6.6 -1.28,2.73 -1.76,6.94 -3.08,9.65 -2.64,5.42 -7.3,10.46 -10.09,15.81 -5.57,10.69 -11.43,21.23 -17.56,31.61 -12.26,20.76 -25.61,40.87 -39.97,60.24 -14.36,19.37 -29.72,38.01 -45.99,55.81 -16.27,17.8 -33.45,34.77 -51.46,50.81 -18,16.04 -36.83,31.16 -56.39,45.26 -19.56,14.1 -39.85,27.18 -60.77,39.15 -14.55,8.32 -29.4,16.1 -44.53,23.31 -19.13,9.12 -38.93,17.51 -55.43,30.8 -5.37,4.32 -10.49,9.36 -12.92,15.81 -2.43,6.45 -1.49,14.58 3.79,19 3.75,3.13 8.88,3.91 13.74,4.41 28.9,2.98 58.35,0.43 86.33,-7.36 11.04,-3.07 21.8,-7.06 32.34,-11.55 5.69,-2.42 11.26,-5.11 16.98,-7.45 5.16,-2.12 11.9,-5.36 17.61,-5.11 1.96,0.09 4,0.97 4.95,2.69 2.1,3.8 -0.62,8.68 -2.21,12.13 -2.1,4.53 -4.27,9.03 -6.53,13.49 -12.75,25.18 -29.23,48.65 -38.26,75.6 -1.86,5.54 -3.38,11.19 -4.44,16.93 -0.68,3.66 -1.18,7.36 -1.46,11.07 -0.47,6.29 0.06,14.47 6.19,18.03 6.61,3.84 14.46,-0.27 20.18,-3.87 6.89,-4.34 12.91,-9.92 18.62,-15.69 7.71,-7.79 14.57,-16.35 21.34,-24.95 59.21,-75.21 113.73,-154.12 163.14,-236.1 -43.93,57.09 -136.29,98.16 -219.78,104.08 z"
   id="path9"
   style="fill:url(#SVGID_1_)" />
		<linearGradient
   id="SVGID_2_"
   gradientUnits="userSpaceOnUse"
   x1="259.23749"
   y1="323.2388"
   x2="341.59299"
   y2="242.3672">
			<stop
   offset="0"
   style="stop-color:#CB4658"
   id="stop11" />
			<stop
   offset="1"
   style="stop-color:#9A3E59"
   id="stop13" />
		</linearGradient>
		<circle
   class="st1"
   cx="307.82999"
   cy="275.51999"
   r="50.82"
   id="circle16"
   style="fill:url(#SVGID_2_)" />
		<linearGradient
   id="SVGID_3_"
   gradientUnits="userSpaceOnUse"
   x1="562.36829"
   y1="-31.562799"
   x2="155.78439"
   y2="464.05399">
			<stop
   offset="0"
   style="stop-color:#05A6AB"
   id="stop18" />
			<stop
   offset="1"
   style="stop-color:#436AA9"
   id="stop20" />
		</linearGradient>
		<path
   class="st2"
   d="m 554.47,182.1 c 0,0 8.9,40.06 -37.47,11.13 l -13.23,-7.19 c -1.31,-0.71 -2.95,-0.1 -3.48,1.29 l -5.17,13.61 -0.08,0.22 -0.52,1.78 -0.75,2.57 -1.48,4.61 c 0,0 -0.51,1.81 -1.32,4.54 -6.56,22 -39.02,124.12 -80.81,180.86 0,0 -51.94,82.36 -162.98,117.97 0,0 -48.97,16.32 -76.91,21.02 0,0 85.32,-29.43 73.7,-91.75 0,0 -3.96,-26.46 -33.14,-55.15 0,0 -69.25,-68.51 -78.15,-78.15 0,0 -34.13,-41.3 -2.47,-51.19 0,0 16.08,-2.92 41.96,13.72 0.19,0.12 0.39,0.25 0.58,0.38 0,0 75.18,67.27 120.19,68.01 0,0 51.69,12.61 75.18,-20.03 0,0 -34.13,90.76 -35.12,94.97 -0.99,4.2 28.94,-37.84 57.62,-108.57 0,0 35.35,-87.91 38.42,-130.97 0.11,-1.54 -1.27,-2.75 -2.78,-2.45 -12.55,2.51 -60.44,10.46 -50.97,-16.45 0,0 85.82,-114.51 96.95,-120.94 0,0 25.1,-21.52 39.2,11.25"
   id="path23"
   style="fill:url(#SVGID_3_)" />
		<linearGradient
   id="SVGID_4_"
   gradientUnits="userSpaceOnUse"
   x1="487.56021"
   y1="272.73251"
   x2="181.1384"
   y2="548.73468">
			<stop
   offset="9.496934e-03"
   style="stop-color:#04758A"
   id="stop25" />
			<stop
   offset="1"
   style="stop-color:#2D4899"
   id="stop27" />
		</linearGradient>
		<path
   class="st3"
   d="m 495.33,201.29 c -11.48,37.65 -78.74,231.35 -256.02,278.18 0,0 -23.83,35.2 -69.13,55.24 1.23,-0.18 2.45,-0.38 3.67,-0.59 3.43,-0.58 6.85,-1.23 10.26,-1.91 5.25,-1.05 10.49,-2.19 15.7,-3.42 6.7,-1.57 13.37,-3.28 20.01,-5.13 7.78,-2.16 15.51,-4.5 23.17,-7.03 8.48,-2.8 16.89,-5.84 25.2,-9.13 8.83,-3.5 17.54,-7.3 26.08,-11.43 8.81,-4.26 17.45,-8.88 25.83,-13.93 23.78,-14.31 44.67,-32.92 63.01,-53.67 19.05,-21.55 36.67,-45.22 50.73,-70.28 13.03,-23.23 22.97,-47.76 32.83,-72.49 4.57,-11.47 8.86,-23.05 12.9,-34.71 4.5,-12.99 9.34,-26.26 13.25,-39.44 1.03,-3.47 2.01,-6.45 2.51,-10.26 z"
   id="path30"
   style="fill:url(#SVGID_4_)" />
	</g>
</g>
</svg>
