<?xml version="1.0" encoding="utf-8"?>
<!-- Generator: Adobe Illustrator 25.2.1, SVG Export Plug-In . SVG Version: 6.00 Build 0)  -->
<svg version="1.1" id="Layer_1" xmlns="http://www.w3.org/2000/svg" xmlns:xlink="http://www.w3.org/1999/xlink" x="0px" y="0px"
	 viewBox="0 0 612 792" style="enable-background:new 0 0 612 792;" xml:space="preserve">
<style type="text/css">
	.st0{fill:url(#SVGID_1_);}
	.st1{fill:url(#SVGID_2_);}
	.st2{fill:url(#SVGID_3_);}
	.st3{fill:url(#SVGID_4_);}
</style>
<g>
	<g>
		<linearGradient id="SVGID_1_" gradientUnits="userSpaceOnUse" x1="129.5058" y1="695.7537" x2="398.8305" y2="414.5578">
			<stop  offset="1.331947e-07" style="stop-color:#E15C47"/>
			<stop  offset="1" style="stop-color:#E9BB4D"/>
		</linearGradient>
		<path class="st0" d="M227.6,549.85c77.52-9.97,150.35-53.49,194.96-117.67c14.93-21.48,26.73-45.01,36.05-69.43
			c9.39-24.62,16.31-50.13,21.84-75.88c5.58-25.98,9.76-52.24,13.59-78.53c0.42-2.87,0.61-5.91,1.32-8.7
			c-0.75,1.99-1.24,4.78-2.1,6.6c-1.28,2.73-1.76,6.94-3.08,9.65c-2.64,5.42-7.3,10.46-10.09,15.81
			c-5.57,10.69-11.43,21.23-17.56,31.61c-12.26,20.76-25.61,40.87-39.97,60.24c-14.36,19.37-29.72,38.01-45.99,55.81
			c-16.27,17.8-33.45,34.77-51.46,50.81c-18,16.04-36.83,31.16-56.39,45.26c-19.56,14.1-39.85,27.18-60.77,39.15
			c-14.55,8.32-29.4,16.1-44.53,23.31c-19.13,9.12-38.93,17.51-55.43,30.8c-5.37,4.32-10.49,9.36-12.92,15.81
			c-2.43,6.45-1.49,14.58,3.79,19c3.75,3.13,8.88,3.91,13.74,4.41c28.9,2.98,58.35,0.43,86.33-7.36
			c11.04-3.07,21.8-7.06,32.34-11.55c5.69-2.42,11.26-5.11,16.98-7.45c5.16-2.12,11.9-5.36,17.61-5.11c1.96,0.09,4,0.97,4.95,2.69
			c2.1,3.8-0.62,8.68-2.21,12.13c-2.1,4.53-4.27,9.03-6.53,13.49c-12.75,25.18-29.23,48.65-38.26,75.6
			c-1.86,5.54-3.38,11.19-4.44,16.93c-0.68,3.66-1.18,7.36-1.46,11.07c-0.47,6.29,0.06,14.47,6.19,18.03
			c6.61,3.84,14.46-0.27,20.18-3.87c6.89-4.34,12.91-9.92,18.62-15.69c7.71-7.79,14.57-16.35,21.34-24.95
			c59.21-75.21,113.73-154.12,163.14-236.1C403.45,502.86,311.09,543.93,227.6,549.85z"/>
		<linearGradient id="SVGID_2_" gradientUnits="userSpaceOnUse" x1="259.2375" y1="323.2388" x2="341.593" y2="242.3672">
			<stop  offset="0" style="stop-color:#CB4658"/>
			<stop  offset="1" style="stop-color:#9A3E59"/>
		</linearGradient>
		<circle class="st1" cx="307.83" cy="275.52" r="50.82"/>
		<linearGradient id="SVGID_3_" gradientUnits="userSpaceOnUse" x1="562.3683" y1="-31.5628" x2="155.7844" y2="464.054">
			<stop  offset="0" style="stop-color:#05A6AB"/>
			<stop  offset="1" style="stop-color:#436AA9"/>
		</linearGradient>
		<path class="st2" d="M554.47,182.1c0,0,8.9,40.06-37.47,11.13l-13.23-7.19c-1.31-0.71-2.95-0.1-3.48,1.29l-5.17,13.61l-0.08,0.22
			l-0.52,1.78l-0.75,2.57l-1.48,4.61c0,0-0.51,1.81-1.32,4.54c-6.56,22-39.02,124.12-80.81,180.86c0,0-51.94,82.36-162.98,117.97
			c0,0-48.97,16.32-76.91,21.02c0,0,85.32-29.43,73.7-91.75c0,0-3.96-26.46-33.14-55.15c0,0-69.25-68.51-78.15-78.15
			c0,0-34.13-41.3-2.47-51.19c0,0,16.08-2.92,41.96,13.72c0.19,0.12,0.39,0.25,0.58,0.38c0,0,75.18,67.27,120.19,68.01
			c0,0,51.69,12.61,75.18-20.03c0,0-34.13,90.76-35.12,94.97c-0.99,4.2,28.94-37.84,57.62-108.57c0,0,35.35-87.91,38.42-130.97
			c0.11-1.54-1.27-2.75-2.78-2.45c-12.55,2.51-60.44,10.46-50.97-16.45c0,0,85.82-114.51,96.95-120.94c0,0,25.1-21.52,39.2,11.25"/>
		<linearGradient id="SVGID_4_" gradientUnits="userSpaceOnUse" x1="487.5602" y1="272.7325" x2="181.1384" y2="548.7347">
			<stop  offset="9.496934e-03" style="stop-color:#04758A"/>
			<stop  offset="1" style="stop-color:#2D4899"/>
		</linearGradient>
		<path class="st3" d="M495.33,201.29c-11.48,37.65-78.74,231.35-256.02,278.18c0,0-23.83,35.2-69.13,55.24
			c1.23-0.18,2.45-0.38,3.67-0.59c3.43-0.58,6.85-1.23,10.26-1.91c5.25-1.05,10.49-2.19,15.7-3.42c6.7-1.57,13.37-3.28,20.01-5.13
			c7.78-2.16,15.51-4.5,23.17-7.03c8.48-2.8,16.89-5.84,25.2-9.13c8.83-3.5,17.54-7.3,26.08-11.43c8.81-4.26,17.45-8.88,25.83-13.93
			c23.78-14.31,44.67-32.92,63.01-53.67c19.05-21.55,36.67-45.22,50.73-70.28c13.03-23.23,22.97-47.76,32.83-72.49
			c4.57-11.47,8.86-23.05,12.9-34.71c4.5-12.99,9.34-26.26,13.25-39.44C493.85,208.08,494.83,205.1,495.33,201.29L495.33,201.29z"/>
	</g>
</g>
</svg>
