<?xml version="1.0" encoding="utf-8"?>
<!-- Generator: Adobe Illustrator 25.2.1, SVG Export Plug-In . SVG Version: 6.00 Build 0)  -->
<svg version="1.1" id="Layer_1" xmlns="http://www.w3.org/2000/svg" xmlns:xlink="http://www.w3.org/1999/xlink" x="0px" y="0px"
	 viewBox="0 0 532 352" style="enable-background:new 0 0 532 352;" xml:space="preserve">
<style type="text/css">
	.st0{fill:#FFFFFF;}
	.st1{fill:url(#SVGID_1_);}
	.st2{fill:url(#SVGID_2_);}
	.st3{fill:url(#SVGID_3_);}
	.st4{fill:url(#SVGID_4_);}
</style>
<g>
	<g>
		<g>
			<path class="st0" d="M362.4,255.4c-0.4,0-1.1,0-1.9-0.1c-8-0.4-10.3-2.1-12.2-4.7c-2.5-3.5-4.4-7.3-6.5-11.1
				c-1-1.7-1.8-2.1-3.9-2.1l-1.3-0.1v9.2c0,5.1,0.6,5.5,5.4,6.1v2.3h-19.3v-2.3c4.8-0.5,5.4-1,5.4-6.1v-24.1c0-5-0.6-5.7-5.4-6v-2.3
				H341c5.6,0,8.8,0.6,11.4,2.4c2.5,1.7,4.2,4.5,4.2,8.4c0,5.6-3.7,8.6-7.9,10.2c1,1.9,3.4,6,5.3,8.9c2.2,3.5,3.6,5.2,4.8,6.6
				c1.5,1.6,2.1,2.1,4,2.8L362.4,255.4z M338.3,234.8c2.7,0,4.8-0.4,6.2-1.6c2.1-1.8,3-4.2,3-7.4c0-6.7-3.9-9.1-7.4-9.1
				c-1.7,0-2.5,0.2-2.9,0.6c-0.4,0.4-0.6,1.1-0.6,2.4v15.1H338.3z"/>
			<path class="st0" d="M383.8,255v-2.3c4-0.6,4-1.3,3.1-4c-0.6-1.9-1.6-4.7-2.6-7.2H372c-0.7,2-1.6,4.4-2.2,6.3
				c-1.3,4,0.2,4.5,5.2,4.9v2.3h-15.6v-2.3c4-0.5,5-1.1,7.1-6.4l13.1-32.6l3-0.6c4,11,8.3,22.2,12.4,32.7c2.3,5.9,2.9,6.3,7,6.8v2.3
				L383.8,255L383.8,255z M378.2,224.9c-1.8,4.5-3.6,8.8-5.2,13.4h10L378.2,224.9z"/>
			<path class="st0" d="M432,224.5c-0.7-2.4-1.7-4.7-2.8-5.9c-1.3-1.4-2.1-1.6-5.2-1.6h-4.7c-2.1,0-2.4,0.1-2.4,2.3V233h6.8
				c3.7,0,4.2-1,5.2-5.4h2.3v14h-2.4c-0.7-4.3-1.6-5.4-5.1-5.4h-6.8v9.8c0,5.8,0.4,6.2,6,6.6v2.3h-20.2v-2.3
				c4.8-0.4,5.4-0.8,5.4-6.6v-23.2c0-5.6-0.6-6.1-5.4-6.5v-2.3h21.4c5.4,0,8.6-0.1,9.6-0.1c0.1,1.1,0.4,6.5,0.7,10.2L432,224.5z"/>
			<path class="st0" d="M473.2,225c-0.7-2.9-2.1-5.3-2.7-6.2c-1.1-1.3-1.6-1.8-5.4-1.8h-4v29.6c0,5.3,0.6,5.7,6.2,6.1v2.3h-20.9
				v-2.3c5.4-0.4,5.9-0.8,5.9-6.1V217h-3.9c-3.5,0-4.5,0.6-5.7,2.1c-0.9,1.2-1.8,3.5-2.6,6h-2.4c0.4-4.6,0.9-9.5,1-12.5h1.9
				c1,1.5,1.7,1.6,3.6,1.6h25.2c1.7,0,2.6-0.4,3.7-1.6h1.8c0.1,2.6,0.3,8.2,0.6,12.3L473.2,225z"/>
		</g>
	</g>
	<g>
		<g>
			<path class="st0" d="M346.9,196.3V194c4-0.6,4-1.3,3.1-4c-0.6-1.9-1.6-4.7-2.6-7.2h-12.3c-0.7,2-1.6,4.4-2.2,6.3
				c-1.3,4,0.2,4.5,5.2,4.9v2.3h-15.6V194c4-0.5,5-1.1,7.1-6.4l13.1-32.6l3-0.6c4,11,8.3,22.2,12.4,32.7c2.3,5.9,2.9,6.3,7,6.8v2.3
				L346.9,196.3L346.9,196.3z M341.4,166.2c-1.8,4.5-3.6,8.8-5.2,13.4h10L341.4,166.2z"/>
			<path class="st0" d="M405.5,196.7c-0.4,0-1.1,0-1.9-0.1c-8-0.4-10.3-2.1-12.2-4.7c-2.5-3.5-4.4-7.3-6.5-11.1
				c-1-1.7-1.8-2.1-3.9-2.1l-1.3-0.1v9.2c0,5.1,0.6,5.5,5.4,6.1v2.3h-19.3V194c4.8-0.5,5.4-1,5.4-6.1v-24.1c0-5-0.6-5.7-5.4-6v-2.3
				h18.3c5.6,0,8.8,0.6,11.4,2.4c2.5,1.7,4.2,4.5,4.2,8.4c0,5.6-3.7,8.6-7.9,10.2c1,1.9,3.4,6,5.3,8.9c2.2,3.5,3.6,5.2,4.8,6.6
				c1.5,1.6,2.1,2.1,4,2.8L405.5,196.7z M381.5,176.1c2.7,0,4.8-0.4,6.2-1.6c2.1-1.8,3-4.2,3-7.4c0-6.7-3.9-9.1-7.4-9.1
				c-1.7,0-2.5,0.2-2.9,0.6c-0.4,0.4-0.6,1.1-0.6,2.4v15.1H381.5z"/>
			<path class="st0" d="M441.6,185.6c-0.3,1.7-2.1,9-2.6,10.7h-32.7V194c5.7-0.6,6.1-0.9,6.1-6.2v-24.1c0-5.4-0.8-5.7-5-6.1v-2.3
				h20.5c6.6,0,8.8-0.1,9.7-0.1c0.1,1.1,0.4,6.3,0.6,10.2l-2.5,0.3c-0.6-2.1-1.6-4.7-2.7-5.9c-1.1-1.3-2-1.6-5.2-1.6h-4.1
				c-2.4,0-2.6,0.1-2.6,2.3v13.2h6.2c3.5,0,4.2-1,5.1-5.4h2.5v14.1h-2.5c-1-4.7-1.5-5.4-5.2-5.4H421v10.8c0,4.4,0.1,5.7,4,5.7h4.5
				c3.5,0,4.5-0.4,5.9-2.1c1.6-1.8,2.8-4.2,3.9-6.3L441.6,185.6z"/>
			<path class="st0" d="M479.9,185.6c-0.3,1.7-2.1,9-2.7,10.7h-32.7V194c5.7-0.6,6.1-0.9,6.1-6.2v-24.1c0-5.4-0.8-5.7-5-6.1v-2.3
				h20.5c6.6,0,8.8-0.1,9.7-0.1c0.1,1.1,0.4,6.3,0.6,10.2l-2.5,0.3c-0.6-2.1-1.6-4.7-2.7-5.9c-1.1-1.3-2-1.6-5.2-1.6H462
				c-2.4,0-2.6,0.1-2.6,2.3v13.2h6.2c3.5,0,4.2-1,5.1-5.4h2.5v14.1h-2.5c-1-4.7-1.5-5.4-5.2-5.4h-6.1v10.8c0,4.4,0.1,5.7,4,5.7h4.5
				c3.5,0,4.5-0.4,5.9-2.1c1.6-1.8,2.8-4.2,3.8-6.3L479.9,185.6z"/>
			<path class="st0" d="M523.3,196.7c-0.4,0-1.1,0-1.9-0.1c-8-0.4-10.3-2.1-12.2-4.7c-2.5-3.5-4.3-7.3-6.5-11.1
				c-1-1.7-1.8-2.1-3.8-2.1l-1.3-0.1v9.2c0,5.1,0.6,5.5,5.4,6.1v2.3h-19.3V194c4.8-0.5,5.4-1,5.4-6.1v-24.1c0-5-0.6-5.7-5.4-6v-2.3
				h18.3c5.6,0,8.8,0.6,11.4,2.4c2.5,1.7,4.2,4.5,4.2,8.4c0,5.6-3.7,8.6-7.9,10.2c1,1.9,3.4,6,5.3,8.9c2.2,3.5,3.6,5.2,4.8,6.6
				c1.5,1.6,2.1,2.1,4,2.8L523.3,196.7z M499.3,176.1c2.7,0,4.8-0.4,6.2-1.6c2.1-1.8,3-4.2,3-7.4c0-6.7-3.8-9.1-7.4-9.1
				c-1.7,0-2.5,0.2-2.9,0.6c-0.4,0.4-0.6,1.1-0.6,2.4v15.1H499.3z"/>
		</g>
	</g>
	<g>
		<g>
			<path class="st0" d="M212.8,200.2c0-40.4,25.6-63.9,58.3-63.9c15.5,0,28.1,7.4,36.4,15.5l-15.2,17.1c-5.8-5.4-12.4-8.7-21.2-8.7
				c-17.3,0-30,14.7-30,39.1c0,25.1,12.6,39.6,31,39.6c8.8,0,16-4.3,22-10.8l15.2,16.7c-10,11.8-23.6,17.9-40,17.9
				C239,262.7,212.8,241.3,212.8,200.2z"/>
		</g>
	</g>
	<g>
		
			<linearGradient id="SVGID_1_" gradientUnits="userSpaceOnUse" x1="30.1336" y1="2.0927" x2="158.9946" y2="136.6334" gradientTransform="matrix(1 0 0 -1 0 326)">
			<stop  offset="1.331947e-07" style="stop-color:#E15C47"/>
			<stop  offset="1" style="stop-color:#E9BB4D"/>
		</linearGradient>
		<path class="st1" d="M77.1,254.1c37.1-4.8,71.9-25.6,93.3-56.3c7.1-10.3,12.8-21.5,17.2-33.2c4.5-11.8,7.8-24,10.4-36.3
			c2.7-12.4,4.7-25,6.5-37.6c0.2-1.4,0.3-2.8,0.6-4.2c-0.4,1-0.6,2.3-1,3.2c-0.6,1.3-0.8,3.3-1.5,4.6c-1.3,2.6-3.5,5-4.8,7.6
			c-2.7,5.1-5.5,10.2-8.4,15.1c-5.9,9.9-12.3,19.6-19.1,28.8c-6.9,9.3-14.2,18.2-22,26.7c-7.8,8.5-16,16.6-24.6,24.3
			c-8.6,7.7-17.6,14.9-27,21.6c-9.4,6.8-19.1,13-29.1,18.7c-7,4-14.1,7.7-21.3,11.1c-9.2,4.4-18.6,8.4-26.5,14.7
			c-2.6,2.1-5,4.5-6.2,7.6s-0.7,7,1.8,9.1c1.8,1.5,4.2,1.9,6.6,2.1c13.8,1.4,27.9,0.2,41.3-3.5c5.3-1.5,10.4-3.4,15.5-5.5
			c2.7-1.2,5.4-2.4,8.1-3.6c2.5-1,5.7-2.6,8.4-2.4c0.9,0,1.9,0.5,2.4,1.3c1,1.8-0.3,4.1-1.1,5.8c-1,2.2-2,4.3-3.1,6.4
			c-6.1,12-14,23.3-18.3,36.2c-0.9,2.7-1.6,5.3-2.1,8.1c-0.3,1.8-0.6,3.5-0.7,5.3c-0.2,3,0,6.9,3,8.6c3.2,1.8,6.9-0.1,9.7-1.8
			c3.3-2.1,6.2-4.8,8.9-7.5c3.7-3.7,7-7.8,10.2-11.9c28.3-36,54.4-73.7,78.1-113C161.2,231.6,117,251.3,77.1,254.1z"/>
		
			<linearGradient id="SVGID_2_" gradientUnits="userSpaceOnUse" x1="92.2112" y1="180.3201" x2="131.615" y2="219.0139" gradientTransform="matrix(1 0 0 -1 0 326)">
			<stop  offset="0" style="stop-color:#CB4658"/>
			<stop  offset="1" style="stop-color:#9A3E59"/>
		</linearGradient>
		<circle class="st2" cx="115.5" cy="122.9" r="24.3"/>
		
			<linearGradient id="SVGID_3_" gradientUnits="userSpaceOnUse" x1="237.2476" y1="350.0775" x2="42.7137" y2="112.9449" gradientTransform="matrix(1 0 0 -1 0 326)">
			<stop  offset="0" style="stop-color:#05A6AB"/>
			<stop  offset="1" style="stop-color:#436AA9"/>
		</linearGradient>
		<path class="st3" d="M233.5,78.1c0,0,4.3,19.2-17.9,5.3l-6.3-3.4c-0.6-0.3-1.4,0-1.7,0.6l-2.5,6.5l0,0.1l-0.2,0.9l-0.4,1.2
			l-0.7,2.2c0,0-0.2,0.9-0.6,2.2c-3.1,10.5-18.7,59.4-38.7,86.5c0,0-24.9,39.4-78,56.4c0,0-23.4,7.8-36.8,10.1
			c0,0,40.8-14.1,35.3-43.9c0,0-1.9-12.7-15.9-26.4c0,0-33.1-32.8-37.4-37.4c0,0-16.3-19.8-1.2-24.5c0,0,7.7-1.4,20.1,6.6
			c0.1,0.1,0.2,0.1,0.3,0.2c0,0,36,32.2,57.5,32.5c0,0,24.7,6,36-9.6c0,0-16.3,43.4-16.8,45.4s13.8-18.1,27.6-52
			c0,0,16.9-42.1,18.4-62.7c0.1-0.7-0.6-1.3-1.3-1.2c-6,1.2-28.9,5-24.4-7.9c0,0,41.1-54.8,46.4-57.9c0,0,12-10.3,18.8,5.4"/>
		
			<linearGradient id="SVGID_4_" gradientUnits="userSpaceOnUse" x1="201.4622" y1="204.4767" x2="54.8518" y2="72.4209" gradientTransform="matrix(1 0 0 -1 0 326)">
			<stop  offset="9.496934e-03" style="stop-color:#04758A"/>
			<stop  offset="1" style="stop-color:#2D4899"/>
		</linearGradient>
		<path class="st4" d="M205.2,87.3c-5.5,18-37.7,110.7-122.5,133.1c0,0-11.4,16.8-33.1,26.4c0.6-0.1,1.2-0.2,1.8-0.3
			c1.6-0.3,3.3-0.6,4.9-0.9c2.5-0.5,5-1,7.5-1.6c3.2-0.8,6.4-1.6,9.6-2.5c3.7-1,7.4-2.1,11.1-3.4c4.1-1.3,8.1-2.8,12.1-4.4
			c4.2-1.7,8.4-3.5,12.5-5.5c4.2-2,8.4-4.2,12.4-6.7c11.4-6.9,21.4-15.8,30.1-25.7c9.1-10.3,17.6-21.6,24.3-33.6
			c6.2-11.1,11-22.9,15.7-34.7c2.2-5.5,4.2-11,6.2-16.6c2.1-6.2,4.5-12.6,6.3-18.9C204.5,90.6,204.9,89.1,205.2,87.3L205.2,87.3z"/>
	</g>
</g>
</svg>
